<?xml version="1.0" standalone="no"?>
<!DOCTYPE svg PUBLIC "-//W3C//DTD SVG 20010904//EN"
 "http://www.w3.org/TR/2001/REC-SVG-20010904/DTD/svg10.dtd">
<svg version="1.0" xmlns="http://www.w3.org/2000/svg"
 width="750.000000pt" height="750.000000pt" viewBox="0 0 750.000000 750.000000"
 preserveAspectRatio="xMidYMid meet">
<metadata>
Created by potrace 1.14, written by Peter Selinger 2001-2017
</metadata>
<g transform="translate(0.000000,750.000000) scale(0.100000,-0.100000)"
fill="#000000" stroke="none">
<path d="M3966 4994 c-3 -8 -17 -14 -31 -14 -15 0 -24 -4 -20 -9 3 -6 -2 -14
-12 -19 -14 -8 -15 -13 -5 -25 11 -13 9 -16 -8 -22 -14 -5 -18 -10 -12 -18 10
-13 25 -61 28 -92 1 -11 5 -36 9 -55 4 -19 8 -55 10 -79 2 -24 6 -46 9 -48 3
-3 0 -15 -6 -27 -7 -11 -12 -35 -13 -52 -1 -48 -18 -61 -80 -62 -37 0 -84 10
-147 33 -322 114 -385 135 -454 150 -75 17 -171 15 -184 -4 -3 -4 -15 -13 -27
-20 -13 -6 -23 -17 -23 -23 0 -5 -19 -28 -42 -50 -64 -58 -71 -64 -90 -71 -10
-4 -18 -11 -18 -16 0 -6 -17 -20 -37 -31 -58 -31 -77 -44 -85 -57 -30 -45
-349 -167 -466 -177 -34 -3 -67 -8 -72 -11 -11 -7 -176 36 -246 64 -27 10 -97
39 -156 64 -205 88 -287 110 -358 94 -44 -9 -54 -17 -80 -54 -14 -20 -39 -51
-56 -68 -17 -17 -44 -49 -60 -71 -51 -68 -58 -74 -83 -74 -43 0 -151 62 -196
112 -23 26 -64 83 -91 125 -47 76 -167 247 -188 269 -6 6 -35 38 -65 72 -30
34 -60 62 -65 62 -6 0 -33 21 -61 45 -27 25 -57 52 -65 59 -24 21 -73 44 -110
51 -28 5 -40 1 -63 -19 -16 -14 -26 -29 -23 -35 3 -5 0 -16 -8 -23 -26 -26
-46 -77 -46 -116 0 -21 -5 -43 -11 -49 -7 -7 -12 -24 -13 -40 -1 -15 -4 -33
-8 -39 -4 -6 -8 -30 -9 -55 -2 -24 -5 -46 -8 -49 -13 -12 -41 -109 -35 -124 3
-9 0 -23 -7 -32 -7 -9 -12 -33 -11 -54 2 -21 -2 -41 -8 -45 -5 -3 -10 -18 -10
-33 0 -15 -12 -63 -25 -106 -20 -61 -24 -89 -19 -125 4 -25 8 -65 8 -89 1 -29
7 -48 19 -57 13 -9 15 -18 9 -36 -6 -16 -4 -35 5 -56 13 -32 21 -37 55 -34 10
1 26 -2 36 -8 14 -8 44 -4 113 15 52 15 102 28 111 29 9 2 27 9 40 16 13 7 24
11 26 10 1 -1 44 11 95 28 143 48 204 59 292 54 44 -3 84 -9 89 -14 6 -5 16
-9 23 -9 7 0 46 -16 87 -36 69 -34 76 -40 90 -81 8 -24 35 -67 60 -96 37 -43
44 -58 42 -90 -1 -20 1 -37 4 -37 3 0 5 -12 4 -27 -1 -31 6 -40 56 -70 39 -24
83 -34 150 -35 63 -1 262 12 280 18 35 13 220 12 290 -1 101 -18 191 -44 208
-61 7 -8 22 -14 33 -14 10 0 19 -6 19 -13 0 -7 11 -21 25 -31 14 -10 25 -24
25 -30 0 -6 9 -17 20 -24 12 -7 18 -17 15 -22 -3 -5 3 -15 15 -22 11 -7 20
-19 20 -26 0 -7 7 -15 15 -18 8 -4 15 -13 15 -20 0 -8 7 -17 15 -20 8 -4 15
-12 15 -20 0 -7 9 -18 20 -24 11 -6 20 -16 20 -23 1 -21 34 -51 82 -75 26 -13
51 -29 55 -36 13 -20 94 -46 188 -60 103 -15 444 -22 557 -12 53 6 69 4 82 -9
9 -9 16 -21 16 -26 0 -5 8 -9 18 -9 10 0 29 -11 42 -25 19 -20 33 -25 74 -25
62 0 132 -11 246 -39 25 -7 54 -14 65 -16 11 -3 40 -8 65 -11 95 -11 105 -13
105 -15 0 -7 234 -5 300 2 44 5 108 11 143 14 35 2 67 7 71 10 5 2 33 7 62 11
30 3 57 8 61 10 4 3 9 0 12 -5 3 -4 35 0 71 10 36 10 88 20 117 23 29 2 62 8
73 12 17 7 16 3 -7 -28 -16 -20 -28 -41 -28 -47 0 -6 -4 -11 -9 -11 -13 0
-107 -130 -116 -160 -6 -23 -4 -22 20 7 15 18 30 33 35 33 5 0 21 5 37 12 15
6 31 12 34 12 4 1 28 15 55 32 27 18 69 41 92 53 24 13 72 39 105 60 34 20
107 61 162 90 55 29 115 64 133 78 17 13 60 33 95 44 34 12 142 54 240 96 98
41 190 77 205 79 14 3 29 7 34 10 5 3 18 7 31 10 51 9 64 13 112 28 28 8 97
29 155 46 58 17 128 37 155 46 28 8 122 35 210 60 88 24 171 52 185 62 29 19
98 52 120 57 38 8 207 68 227 81 30 19 40 18 53 -6 18 -34 18 -103 -1 -161
-13 -41 -14 -49 -3 -34 22 30 49 158 46 219 -1 10 10 28 24 38 42 34 49 57 24
83 -21 23 -63 40 -86 36 -7 -1 -14 6 -18 14 -6 16 1 20 89 51 58 21 85 42 85
65 0 11 7 27 15 35 40 40 -7 117 -105 173 -56 32 -217 109 -240 116 -14 3 -34
10 -45 15 -92 41 -115 50 -125 50 -6 0 -28 9 -48 19 -21 11 -69 26 -107 35
-39 8 -124 29 -190 46 -66 17 -127 32 -135 34 -8 2 -22 6 -30 9 -26 10 -153
45 -210 57 -30 6 -84 18 -119 27 -36 8 -73 16 -83 18 -10 2 -23 7 -28 10 -5 3
-19 8 -30 11 -11 2 -29 6 -39 8 -11 3 -53 14 -93 25 -64 17 -114 28 -208 46
-14 3 -47 9 -75 14 -27 6 -124 13 -215 16 -91 3 -183 7 -205 9 -22 2 -78 7
-125 10 -47 4 -111 13 -142 20 -32 7 -59 12 -61 10 -1 -2 -29 19 -62 47 -70
58 -67 55 -125 94 -25 16 -47 33 -50 36 -26 32 -252 154 -263 142 -3 -3 -36 7
-73 22 -82 33 -88 34 -196 39 -68 4 -88 1 -92 -10z"/>
</g>
</svg>
